<?xml version="1.0" encoding="utf-8" standalone="no"?>
<!DOCTYPE svg PUBLIC "-//W3C//DTD SVG 1.1//EN"
  "http://www.w3.org/Graphics/SVG/1.1/DTD/svg11.dtd">
<svg xmlns:xlink="http://www.w3.org/1999/xlink" width="774.076172pt" height="529.147031pt" viewBox="0 0 774.076172 529.147031" xmlns="http://www.w3.org/2000/svg" version="1.1">
 <metadata>
  <rdf:RDF xmlns:dc="http://purl.org/dc/elements/1.1/" xmlns:cc="http://creativecommons.org/ns#" xmlns:rdf="http://www.w3.org/1999/02/22-rdf-syntax-ns#">
   <cc:Work>
    <dc:type rdf:resource="http://purl.org/dc/dcmitype/StillImage"/>
    <dc:date>2023-06-05T16:16:02.589997</dc:date>
    <dc:format>image/svg+xml</dc:format>
    <dc:creator>
     <cc:Agent>
      <dc:title>Matplotlib v3.5.2, https://matplotlib.org/</dc:title>
     </cc:Agent>
    </dc:creator>
   </cc:Work>
  </rdf:RDF>
 </metadata>
 <defs>
  <style type="text/css">*{stroke-linejoin: round; stroke-linecap: butt}</style>
 </defs>
 <g id="figure_1">
  <g id="patch_1">
   <path d="M 0 529.147031 
L 774.076172 529.147031 
L 774.076172 0 
L 0 0 
z
" style="fill: #ffffff"/>
  </g>
  <g id="axes_1">
   <g id="patch_2">
    <path d="M 98.522578 471.916875 
L 656.522578 471.916875 
L 656.522578 28.396875 
L 98.522578 28.396875 
z
" style="fill: #ffffff"/>
   </g>
   <g id="matplotlib.axis_1">
    <g id="xtick_1">
     <g id="text_1">
      <!-- 0.0 -->
      <g style="fill: #262626" transform="translate(107.57342 496.954297)scale(0.165 -0.165)">
       <defs>
        <path id="DejaVuSans-Bold-30" d="M 2944 2338 
Q 2944 3213 2780 3570 
Q 2616 3928 2228 3928 
Q 1841 3928 1675 3570 
Q 1509 3213 1509 2338 
Q 1509 1453 1675 1090 
Q 1841 728 2228 728 
Q 2613 728 2778 1090 
Q 2944 1453 2944 2338 
z
M 4147 2328 
Q 4147 1169 3647 539 
Q 3147 -91 2228 -91 
Q 1306 -91 806 539 
Q 306 1169 306 2328 
Q 306 3491 806 4120 
Q 1306 4750 2228 4750 
Q 3147 4750 3647 4120 
Q 4147 3491 4147 2328 
z
" transform="scale(0.015625)"/>
        <path id="DejaVuSans-Bold-2e" d="M 653 1209 
L 1778 1209 
L 1778 0 
L 653 0 
L 653 1209 
z
" transform="scale(0.015625)"/>
       </defs>
       <use xlink:href="#DejaVuSans-Bold-30"/>
       <use xlink:href="#DejaVuSans-Bold-2e" x="69.580078"/>
       <use xlink:href="#DejaVuSans-Bold-30" x="107.568359"/>
      </g>
     </g>
    </g>
    <g id="xtick_2">
     <g id="text_2">
      <!-- 0.2 -->
      <g style="fill: #262626" transform="translate(209.444564 496.954297)scale(0.165 -0.165)">
       <defs>
        <path id="DejaVuSans-Bold-32" d="M 1844 884 
L 3897 884 
L 3897 0 
L 506 0 
L 506 884 
L 2209 2388 
Q 2438 2594 2547 2791 
Q 2656 2988 2656 3200 
Q 2656 3528 2436 3728 
Q 2216 3928 1850 3928 
Q 1569 3928 1234 3808 
Q 900 3688 519 3450 
L 519 4475 
Q 925 4609 1322 4679 
Q 1719 4750 2100 4750 
Q 2938 4750 3402 4381 
Q 3866 4013 3866 3353 
Q 3866 2972 3669 2642 
Q 3472 2313 2841 1759 
L 1844 884 
z
" transform="scale(0.015625)"/>
       </defs>
       <use xlink:href="#DejaVuSans-Bold-30"/>
       <use xlink:href="#DejaVuSans-Bold-2e" x="69.580078"/>
       <use xlink:href="#DejaVuSans-Bold-32" x="107.568359"/>
      </g>
     </g>
    </g>
    <g id="xtick_3">
     <g id="text_3">
      <!-- 0.4 -->
      <g style="fill: #262626" transform="translate(311.315707 496.954297)scale(0.165 -0.165)">
       <defs>
        <path id="DejaVuSans-Bold-34" d="M 2356 3675 
L 1038 1722 
L 2356 1722 
L 2356 3675 
z
M 2156 4666 
L 3494 4666 
L 3494 1722 
L 4159 1722 
L 4159 850 
L 3494 850 
L 3494 0 
L 2356 0 
L 2356 850 
L 288 850 
L 288 1881 
L 2156 4666 
z
" transform="scale(0.015625)"/>
       </defs>
       <use xlink:href="#DejaVuSans-Bold-30"/>
       <use xlink:href="#DejaVuSans-Bold-2e" x="69.580078"/>
       <use xlink:href="#DejaVuSans-Bold-34" x="107.568359"/>
      </g>
     </g>
    </g>
    <g id="xtick_4">
     <g id="text_4">
      <!-- 0.6 -->
      <g style="fill: #262626" transform="translate(413.18685 496.954297)scale(0.165 -0.165)">
       <defs>
        <path id="DejaVuSans-Bold-36" d="M 2316 2303 
Q 2000 2303 1842 2098 
Q 1684 1894 1684 1484 
Q 1684 1075 1842 870 
Q 2000 666 2316 666 
Q 2634 666 2792 870 
Q 2950 1075 2950 1484 
Q 2950 1894 2792 2098 
Q 2634 2303 2316 2303 
z
M 3803 4544 
L 3803 3681 
Q 3506 3822 3243 3889 
Q 2981 3956 2731 3956 
Q 2194 3956 1894 3657 
Q 1594 3359 1544 2772 
Q 1750 2925 1990 3001 
Q 2231 3078 2516 3078 
Q 3231 3078 3670 2659 
Q 4109 2241 4109 1563 
Q 4109 813 3618 361 
Q 3128 -91 2303 -91 
Q 1394 -91 895 523 
Q 397 1138 397 2266 
Q 397 3422 980 4083 
Q 1563 4744 2578 4744 
Q 2900 4744 3203 4694 
Q 3506 4644 3803 4544 
z
" transform="scale(0.015625)"/>
       </defs>
       <use xlink:href="#DejaVuSans-Bold-30"/>
       <use xlink:href="#DejaVuSans-Bold-2e" x="69.580078"/>
       <use xlink:href="#DejaVuSans-Bold-36" x="107.568359"/>
      </g>
     </g>
    </g>
    <g id="xtick_5">
     <g id="text_5">
      <!-- 0.8 -->
      <g style="fill: #262626" transform="translate(515.057993 496.954297)scale(0.165 -0.165)">
       <defs>
        <path id="DejaVuSans-Bold-38" d="M 2228 2088 
Q 1891 2088 1709 1903 
Q 1528 1719 1528 1375 
Q 1528 1031 1709 848 
Q 1891 666 2228 666 
Q 2563 666 2741 848 
Q 2919 1031 2919 1375 
Q 2919 1722 2741 1905 
Q 2563 2088 2228 2088 
z
M 1350 2484 
Q 925 2613 709 2878 
Q 494 3144 494 3541 
Q 494 4131 934 4440 
Q 1375 4750 2228 4750 
Q 3075 4750 3515 4442 
Q 3956 4134 3956 3541 
Q 3956 3144 3739 2878 
Q 3522 2613 3097 2484 
Q 3572 2353 3814 2058 
Q 4056 1763 4056 1313 
Q 4056 619 3595 264 
Q 3134 -91 2228 -91 
Q 1319 -91 855 264 
Q 391 619 391 1313 
Q 391 1763 633 2058 
Q 875 2353 1350 2484 
z
M 1631 3419 
Q 1631 3141 1786 2991 
Q 1941 2841 2228 2841 
Q 2509 2841 2662 2991 
Q 2816 3141 2816 3419 
Q 2816 3697 2662 3845 
Q 2509 3994 2228 3994 
Q 1941 3994 1786 3844 
Q 1631 3694 1631 3419 
z
" transform="scale(0.015625)"/>
       </defs>
       <use xlink:href="#DejaVuSans-Bold-30"/>
       <use xlink:href="#DejaVuSans-Bold-2e" x="69.580078"/>
       <use xlink:href="#DejaVuSans-Bold-38" x="107.568359"/>
      </g>
     </g>
    </g>
    <g id="xtick_6">
     <g id="text_6">
      <!-- 1.0 -->
      <g style="fill: #262626" transform="translate(616.929137 496.954297)scale(0.165 -0.165)">
       <defs>
        <path id="DejaVuSans-Bold-31" d="M 750 831 
L 1813 831 
L 1813 3847 
L 722 3622 
L 722 4441 
L 1806 4666 
L 2950 4666 
L 2950 831 
L 4013 831 
L 4013 0 
L 750 0 
L 750 831 
z
" transform="scale(0.015625)"/>
       </defs>
       <use xlink:href="#DejaVuSans-Bold-31"/>
       <use xlink:href="#DejaVuSans-Bold-2e" x="69.580078"/>
       <use xlink:href="#DejaVuSans-Bold-30" x="107.568359"/>
      </g>
     </g>
    </g>
    <g id="text_7">
     <!-- Document Probability -->
     <g style="fill: #262626" transform="translate(267.200859 518.062969)scale(0.18 -0.18)">
      <defs>
       <path id="DejaVuSans-Bold-44" d="M 1791 3756 
L 1791 909 
L 2222 909 
Q 2959 909 3348 1275 
Q 3738 1641 3738 2338 
Q 3738 3031 3350 3393 
Q 2963 3756 2222 3756 
L 1791 3756 
z
M 588 4666 
L 1856 4666 
Q 2919 4666 3439 4514 
Q 3959 4363 4331 4000 
Q 4659 3684 4818 3271 
Q 4978 2859 4978 2338 
Q 4978 1809 4818 1395 
Q 4659 981 4331 666 
Q 3956 303 3431 151 
Q 2906 0 1856 0 
L 588 0 
L 588 4666 
z
" transform="scale(0.015625)"/>
       <path id="DejaVuSans-Bold-6f" d="M 2203 2784 
Q 1831 2784 1636 2517 
Q 1441 2250 1441 1747 
Q 1441 1244 1636 976 
Q 1831 709 2203 709 
Q 2569 709 2762 976 
Q 2956 1244 2956 1747 
Q 2956 2250 2762 2517 
Q 2569 2784 2203 2784 
z
M 2203 3584 
Q 3106 3584 3614 3096 
Q 4122 2609 4122 1747 
Q 4122 884 3614 396 
Q 3106 -91 2203 -91 
Q 1297 -91 786 396 
Q 275 884 275 1747 
Q 275 2609 786 3096 
Q 1297 3584 2203 3584 
z
" transform="scale(0.015625)"/>
       <path id="DejaVuSans-Bold-63" d="M 3366 3391 
L 3366 2478 
Q 3138 2634 2908 2709 
Q 2678 2784 2431 2784 
Q 1963 2784 1702 2511 
Q 1441 2238 1441 1747 
Q 1441 1256 1702 982 
Q 1963 709 2431 709 
Q 2694 709 2930 787 
Q 3166 866 3366 1019 
L 3366 103 
Q 3103 6 2833 -42 
Q 2563 -91 2291 -91 
Q 1344 -91 809 395 
Q 275 881 275 1747 
Q 275 2613 809 3098 
Q 1344 3584 2291 3584 
Q 2566 3584 2833 3536 
Q 3100 3488 3366 3391 
z
" transform="scale(0.015625)"/>
       <path id="DejaVuSans-Bold-75" d="M 500 1363 
L 500 3500 
L 1625 3500 
L 1625 3150 
Q 1625 2866 1622 2436 
Q 1619 2006 1619 1863 
Q 1619 1441 1641 1255 
Q 1663 1069 1716 984 
Q 1784 875 1895 815 
Q 2006 756 2150 756 
Q 2500 756 2700 1025 
Q 2900 1294 2900 1772 
L 2900 3500 
L 4019 3500 
L 4019 0 
L 2900 0 
L 2900 506 
Q 2647 200 2364 54 
Q 2081 -91 1741 -91 
Q 1134 -91 817 281 
Q 500 653 500 1363 
z
" transform="scale(0.015625)"/>
       <path id="DejaVuSans-Bold-6d" d="M 3781 2919 
Q 3994 3244 4286 3414 
Q 4578 3584 4928 3584 
Q 5531 3584 5847 3212 
Q 6163 2841 6163 2131 
L 6163 0 
L 5038 0 
L 5038 1825 
Q 5041 1866 5042 1909 
Q 5044 1953 5044 2034 
Q 5044 2406 4934 2573 
Q 4825 2741 4581 2741 
Q 4263 2741 4089 2478 
Q 3916 2216 3909 1719 
L 3909 0 
L 2784 0 
L 2784 1825 
Q 2784 2406 2684 2573 
Q 2584 2741 2328 2741 
Q 2006 2741 1831 2477 
Q 1656 2213 1656 1722 
L 1656 0 
L 531 0 
L 531 3500 
L 1656 3500 
L 1656 2988 
Q 1863 3284 2130 3434 
Q 2397 3584 2719 3584 
Q 3081 3584 3359 3409 
Q 3638 3234 3781 2919 
z
" transform="scale(0.015625)"/>
       <path id="DejaVuSans-Bold-65" d="M 4031 1759 
L 4031 1441 
L 1416 1441 
Q 1456 1047 1700 850 
Q 1944 653 2381 653 
Q 2734 653 3104 758 
Q 3475 863 3866 1075 
L 3866 213 
Q 3469 63 3072 -14 
Q 2675 -91 2278 -91 
Q 1328 -91 801 392 
Q 275 875 275 1747 
Q 275 2603 792 3093 
Q 1309 3584 2216 3584 
Q 3041 3584 3536 3087 
Q 4031 2591 4031 1759 
z
M 2881 2131 
Q 2881 2450 2695 2645 
Q 2509 2841 2209 2841 
Q 1884 2841 1681 2658 
Q 1478 2475 1428 2131 
L 2881 2131 
z
" transform="scale(0.015625)"/>
       <path id="DejaVuSans-Bold-6e" d="M 4056 2131 
L 4056 0 
L 2931 0 
L 2931 347 
L 2931 1631 
Q 2931 2084 2911 2256 
Q 2891 2428 2841 2509 
Q 2775 2619 2662 2680 
Q 2550 2741 2406 2741 
Q 2056 2741 1856 2470 
Q 1656 2200 1656 1722 
L 1656 0 
L 538 0 
L 538 3500 
L 1656 3500 
L 1656 2988 
Q 1909 3294 2193 3439 
Q 2478 3584 2822 3584 
Q 3428 3584 3742 3212 
Q 4056 2841 4056 2131 
z
" transform="scale(0.015625)"/>
       <path id="DejaVuSans-Bold-74" d="M 1759 4494 
L 1759 3500 
L 2913 3500 
L 2913 2700 
L 1759 2700 
L 1759 1216 
Q 1759 972 1856 886 
Q 1953 800 2241 800 
L 2816 800 
L 2816 0 
L 1856 0 
Q 1194 0 917 276 
Q 641 553 641 1216 
L 641 2700 
L 84 2700 
L 84 3500 
L 641 3500 
L 641 4494 
L 1759 4494 
z
" transform="scale(0.015625)"/>
       <path id="DejaVuSans-Bold-20" transform="scale(0.015625)"/>
       <path id="DejaVuSans-Bold-50" d="M 588 4666 
L 2584 4666 
Q 3475 4666 3951 4270 
Q 4428 3875 4428 3144 
Q 4428 2409 3951 2014 
Q 3475 1619 2584 1619 
L 1791 1619 
L 1791 0 
L 588 0 
L 588 4666 
z
M 1791 3794 
L 1791 2491 
L 2456 2491 
Q 2806 2491 2997 2661 
Q 3188 2831 3188 3144 
Q 3188 3456 2997 3625 
Q 2806 3794 2456 3794 
L 1791 3794 
z
" transform="scale(0.015625)"/>
       <path id="DejaVuSans-Bold-72" d="M 3138 2547 
Q 2991 2616 2845 2648 
Q 2700 2681 2553 2681 
Q 2122 2681 1889 2404 
Q 1656 2128 1656 1613 
L 1656 0 
L 538 0 
L 538 3500 
L 1656 3500 
L 1656 2925 
Q 1872 3269 2151 3426 
Q 2431 3584 2822 3584 
Q 2878 3584 2943 3579 
Q 3009 3575 3134 3559 
L 3138 2547 
z
" transform="scale(0.015625)"/>
       <path id="DejaVuSans-Bold-62" d="M 2400 722 
Q 2759 722 2948 984 
Q 3138 1247 3138 1747 
Q 3138 2247 2948 2509 
Q 2759 2772 2400 2772 
Q 2041 2772 1848 2508 
Q 1656 2244 1656 1747 
Q 1656 1250 1848 986 
Q 2041 722 2400 722 
z
M 1656 2988 
Q 1888 3294 2169 3439 
Q 2450 3584 2816 3584 
Q 3463 3584 3878 3070 
Q 4294 2556 4294 1747 
Q 4294 938 3878 423 
Q 3463 -91 2816 -91 
Q 2450 -91 2169 54 
Q 1888 200 1656 506 
L 1656 0 
L 538 0 
L 538 4863 
L 1656 4863 
L 1656 2988 
z
" transform="scale(0.015625)"/>
       <path id="DejaVuSans-Bold-61" d="M 2106 1575 
Q 1756 1575 1579 1456 
Q 1403 1338 1403 1106 
Q 1403 894 1545 773 
Q 1688 653 1941 653 
Q 2256 653 2472 879 
Q 2688 1106 2688 1447 
L 2688 1575 
L 2106 1575 
z
M 3816 1997 
L 3816 0 
L 2688 0 
L 2688 519 
Q 2463 200 2181 54 
Q 1900 -91 1497 -91 
Q 953 -91 614 226 
Q 275 544 275 1050 
Q 275 1666 698 1953 
Q 1122 2241 2028 2241 
L 2688 2241 
L 2688 2328 
Q 2688 2594 2478 2717 
Q 2269 2841 1825 2841 
Q 1466 2841 1156 2769 
Q 847 2697 581 2553 
L 581 3406 
Q 941 3494 1303 3539 
Q 1666 3584 2028 3584 
Q 2975 3584 3395 3211 
Q 3816 2838 3816 1997 
z
" transform="scale(0.015625)"/>
       <path id="DejaVuSans-Bold-69" d="M 538 3500 
L 1656 3500 
L 1656 0 
L 538 0 
L 538 3500 
z
M 538 4863 
L 1656 4863 
L 1656 3950 
L 538 3950 
L 538 4863 
z
" transform="scale(0.015625)"/>
       <path id="DejaVuSans-Bold-6c" d="M 538 4863 
L 1656 4863 
L 1656 0 
L 538 0 
L 538 4863 
z
" transform="scale(0.015625)"/>
       <path id="DejaVuSans-Bold-79" d="M 78 3500 
L 1197 3500 
L 2138 1125 
L 2938 3500 
L 4056 3500 
L 2584 -331 
Q 2363 -916 2067 -1148 
Q 1772 -1381 1288 -1381 
L 641 -1381 
L 641 -647 
L 991 -647 
Q 1275 -647 1404 -556 
Q 1534 -466 1606 -231 
L 1638 -134 
L 78 3500 
z
" transform="scale(0.015625)"/>
      </defs>
      <use xlink:href="#DejaVuSans-Bold-44"/>
      <use xlink:href="#DejaVuSans-Bold-6f" x="83.007812"/>
      <use xlink:href="#DejaVuSans-Bold-63" x="151.708984"/>
      <use xlink:href="#DejaVuSans-Bold-75" x="210.986328"/>
      <use xlink:href="#DejaVuSans-Bold-6d" x="282.177734"/>
      <use xlink:href="#DejaVuSans-Bold-65" x="386.376953"/>
      <use xlink:href="#DejaVuSans-Bold-6e" x="454.199219"/>
      <use xlink:href="#DejaVuSans-Bold-74" x="525.390625"/>
      <use xlink:href="#DejaVuSans-Bold-20" x="573.193359"/>
      <use xlink:href="#DejaVuSans-Bold-50" x="608.007812"/>
      <use xlink:href="#DejaVuSans-Bold-72" x="681.298828"/>
      <use xlink:href="#DejaVuSans-Bold-6f" x="730.615234"/>
      <use xlink:href="#DejaVuSans-Bold-62" x="799.316406"/>
      <use xlink:href="#DejaVuSans-Bold-61" x="870.898438"/>
      <use xlink:href="#DejaVuSans-Bold-62" x="938.378906"/>
      <use xlink:href="#DejaVuSans-Bold-69" x="1009.960938"/>
      <use xlink:href="#DejaVuSans-Bold-6c" x="1044.238281"/>
      <use xlink:href="#DejaVuSans-Bold-69" x="1078.515625"/>
      <use xlink:href="#DejaVuSans-Bold-74" x="1112.792969"/>
      <use xlink:href="#DejaVuSans-Bold-79" x="1160.595703"/>
     </g>
    </g>
   </g>
   <g id="matplotlib.axis_2">
    <g id="ytick_1">
     <g id="text_8">
      <!-- 0 -->
      <g style="fill: #262626" transform="translate(74.542188 478.185586)scale(0.165 -0.165)">
       <use xlink:href="#DejaVuSans-Bold-30"/>
      </g>
     </g>
    </g>
    <g id="ytick_2">
     <g id="text_9">
      <!-- 5000 -->
      <g style="fill: #262626" transform="translate(40.101016 383.646642)scale(0.165 -0.165)">
       <defs>
        <path id="DejaVuSans-Bold-35" d="M 678 4666 
L 3669 4666 
L 3669 3781 
L 1638 3781 
L 1638 3059 
Q 1775 3097 1914 3117 
Q 2053 3138 2203 3138 
Q 3056 3138 3531 2711 
Q 4006 2284 4006 1522 
Q 4006 766 3489 337 
Q 2972 -91 2053 -91 
Q 1656 -91 1267 -14 
Q 878 63 494 219 
L 494 1166 
Q 875 947 1217 837 
Q 1559 728 1863 728 
Q 2300 728 2551 942 
Q 2803 1156 2803 1522 
Q 2803 1891 2551 2103 
Q 2300 2316 1863 2316 
Q 1603 2316 1309 2248 
Q 1016 2181 678 2041 
L 678 4666 
z
" transform="scale(0.015625)"/>
       </defs>
       <use xlink:href="#DejaVuSans-Bold-35"/>
       <use xlink:href="#DejaVuSans-Bold-30" x="69.580078"/>
       <use xlink:href="#DejaVuSans-Bold-30" x="139.160156"/>
       <use xlink:href="#DejaVuSans-Bold-30" x="208.740234"/>
      </g>
     </g>
    </g>
    <g id="ytick_3">
     <g id="text_10">
      <!-- 10000 -->
      <g style="fill: #262626" transform="translate(28.620625 289.107699)scale(0.165 -0.165)">
       <use xlink:href="#DejaVuSans-Bold-31"/>
       <use xlink:href="#DejaVuSans-Bold-30" x="69.580078"/>
       <use xlink:href="#DejaVuSans-Bold-30" x="139.160156"/>
       <use xlink:href="#DejaVuSans-Bold-30" x="208.740234"/>
       <use xlink:href="#DejaVuSans-Bold-30" x="278.320312"/>
      </g>
     </g>
    </g>
    <g id="ytick_4">
     <g id="text_11">
      <!-- 15000 -->
      <g style="fill: #262626" transform="translate(28.620625 194.568755)scale(0.165 -0.165)">
       <use xlink:href="#DejaVuSans-Bold-31"/>
       <use xlink:href="#DejaVuSans-Bold-35" x="69.580078"/>
       <use xlink:href="#DejaVuSans-Bold-30" x="139.160156"/>
       <use xlink:href="#DejaVuSans-Bold-30" x="208.740234"/>
       <use xlink:href="#DejaVuSans-Bold-30" x="278.320312"/>
      </g>
     </g>
    </g>
    <g id="ytick_5">
     <g id="text_12">
      <!-- 20000 -->
      <g style="fill: #262626" transform="translate(28.620625 100.029812)scale(0.165 -0.165)">
       <use xlink:href="#DejaVuSans-Bold-32"/>
       <use xlink:href="#DejaVuSans-Bold-30" x="69.580078"/>
       <use xlink:href="#DejaVuSans-Bold-30" x="139.160156"/>
       <use xlink:href="#DejaVuSans-Bold-30" x="208.740234"/>
       <use xlink:href="#DejaVuSans-Bold-30" x="278.320312"/>
      </g>
     </g>
    </g>
    <g id="text_13">
     <!-- Document Count -->
     <g style="fill: #262626" transform="translate(20.877188 334.782187)rotate(-90)scale(0.18 -0.18)">
      <defs>
       <path id="DejaVuSans-Bold-43" d="M 4288 256 
Q 3956 84 3597 -3 
Q 3238 -91 2847 -91 
Q 1681 -91 1000 561 
Q 319 1213 319 2328 
Q 319 3447 1000 4098 
Q 1681 4750 2847 4750 
Q 3238 4750 3597 4662 
Q 3956 4575 4288 4403 
L 4288 3438 
Q 3953 3666 3628 3772 
Q 3303 3878 2944 3878 
Q 2300 3878 1931 3465 
Q 1563 3053 1563 2328 
Q 1563 1606 1931 1193 
Q 2300 781 2944 781 
Q 3303 781 3628 887 
Q 3953 994 4288 1222 
L 4288 256 
z
" transform="scale(0.015625)"/>
      </defs>
      <use xlink:href="#DejaVuSans-Bold-44"/>
      <use xlink:href="#DejaVuSans-Bold-6f" x="83.007812"/>
      <use xlink:href="#DejaVuSans-Bold-63" x="151.708984"/>
      <use xlink:href="#DejaVuSans-Bold-75" x="210.986328"/>
      <use xlink:href="#DejaVuSans-Bold-6d" x="282.177734"/>
      <use xlink:href="#DejaVuSans-Bold-65" x="386.376953"/>
      <use xlink:href="#DejaVuSans-Bold-6e" x="454.199219"/>
      <use xlink:href="#DejaVuSans-Bold-74" x="525.390625"/>
      <use xlink:href="#DejaVuSans-Bold-20" x="573.193359"/>
      <use xlink:href="#DejaVuSans-Bold-43" x="608.007812"/>
      <use xlink:href="#DejaVuSans-Bold-6f" x="681.396484"/>
      <use xlink:href="#DejaVuSans-Bold-75" x="750.097656"/>
      <use xlink:href="#DejaVuSans-Bold-6e" x="821.289062"/>
      <use xlink:href="#DejaVuSans-Bold-74" x="892.480469"/>
     </g>
    </g>
   </g>
   <g id="PatchCollection_1">
    <path d="M 123.886214 471.916875 
L 146.944066 471.916875 
L 146.944066 49.516875 
L 123.886214 49.516875 
z
" clip-path="url(#pc2fe96ae3a)" style="fill: #4c72b0; fill-opacity: 0.7; stroke: #ffffff"/>
    <path d="M 146.944066 471.916875 
L 170.001917 471.916875 
L 170.001917 350.869212 
L 146.944066 350.869212 
z
" clip-path="url(#pc2fe96ae3a)" style="fill: #4c72b0; fill-opacity: 0.7; stroke: #ffffff"/>
    <path d="M 170.001917 471.916875 
L 193.059768 471.916875 
L 193.059768 409.237555 
L 170.001917 409.237555 
z
" clip-path="url(#pc2fe96ae3a)" style="fill: #4c72b0; fill-opacity: 0.7; stroke: #ffffff"/>
    <path d="M 193.059768 471.916875 
L 216.117619 471.916875 
L 216.117619 444.198057 
L 193.059768 444.198057 
z
" clip-path="url(#pc2fe96ae3a)" style="fill: #4c72b0; fill-opacity: 0.7; stroke: #ffffff"/>
    <path d="M 216.117619 471.916875 
L 239.175471 471.916875 
L 239.175471 456.147779 
L 216.117619 456.147779 
z
" clip-path="url(#pc2fe96ae3a)" style="fill: #4c72b0; fill-opacity: 0.7; stroke: #ffffff"/>
    <path d="M 239.175471 471.916875 
L 262.233322 471.916875 
L 262.233322 462.103733 
L 239.175471 462.103733 
z
" clip-path="url(#pc2fe96ae3a)" style="fill: #4c72b0; fill-opacity: 0.7; stroke: #ffffff"/>
    <path d="M 262.233322 471.916875 
L 285.291173 471.916875 
L 285.291173 464.467206 
L 262.233322 464.467206 
z
" clip-path="url(#pc2fe96ae3a)" style="fill: #4c72b0; fill-opacity: 0.7; stroke: #ffffff"/>
    <path d="M 285.291173 471.916875 
L 308.349024 471.916875 
L 308.349024 464.580653 
L 285.291173 464.580653 
z
" clip-path="url(#pc2fe96ae3a)" style="fill: #4c72b0; fill-opacity: 0.7; stroke: #ffffff"/>
    <path d="M 308.349024 471.916875 
L 331.406876 471.916875 
L 331.406876 464.920993 
L 308.349024 464.920993 
z
" clip-path="url(#pc2fe96ae3a)" style="fill: #4c72b0; fill-opacity: 0.7; stroke: #ffffff"/>
    <path d="M 331.406876 471.916875 
L 354.464727 471.916875 
L 354.464727 466.773956 
L 331.406876 466.773956 
z
" clip-path="url(#pc2fe96ae3a)" style="fill: #4c72b0; fill-opacity: 0.7; stroke: #ffffff"/>
    <path d="M 354.464727 471.916875 
L 377.522578 471.916875 
L 377.522578 467.832793 
L 354.464727 467.832793 
z
" clip-path="url(#pc2fe96ae3a)" style="fill: #4c72b0; fill-opacity: 0.7; stroke: #ffffff"/>
    <path d="M 377.522578 471.916875 
L 400.580429 471.916875 
L 400.580429 468.437842 
L 377.522578 468.437842 
z
" clip-path="url(#pc2fe96ae3a)" style="fill: #4c72b0; fill-opacity: 0.7; stroke: #ffffff"/>
    <path d="M 400.580429 471.916875 
L 423.638281 471.916875 
L 423.638281 469.005076 
L 400.580429 469.005076 
z
" clip-path="url(#pc2fe96ae3a)" style="fill: #4c72b0; fill-opacity: 0.7; stroke: #ffffff"/>
    <path d="M 423.638281 471.916875 
L 446.696132 471.916875 
L 446.696132 468.96726 
L 423.638281 468.96726 
z
" clip-path="url(#pc2fe96ae3a)" style="fill: #4c72b0; fill-opacity: 0.7; stroke: #ffffff"/>
    <path d="M 446.696132 471.916875 
L 469.753983 471.916875 
L 469.753983 469.288692 
L 446.696132 469.288692 
z
" clip-path="url(#pc2fe96ae3a)" style="fill: #4c72b0; fill-opacity: 0.7; stroke: #ffffff"/>
    <path d="M 469.753983 471.916875 
L 492.811834 471.916875 
L 492.811834 468.664735 
L 469.753983 468.664735 
z
" clip-path="url(#pc2fe96ae3a)" style="fill: #4c72b0; fill-opacity: 0.7; stroke: #ffffff"/>
    <path d="M 492.811834 471.916875 
L 515.869686 471.916875 
L 515.869686 468.759274 
L 492.811834 468.759274 
z
" clip-path="url(#pc2fe96ae3a)" style="fill: #4c72b0; fill-opacity: 0.7; stroke: #ffffff"/>
    <path d="M 515.869686 471.916875 
L 538.927537 471.916875 
L 538.927537 468.702551 
L 515.869686 468.702551 
z
" clip-path="url(#pc2fe96ae3a)" style="fill: #4c72b0; fill-opacity: 0.7; stroke: #ffffff"/>
    <path d="M 538.927537 471.916875 
L 561.985388 471.916875 
L 561.985388 468.532381 
L 538.927537 468.532381 
z
" clip-path="url(#pc2fe96ae3a)" style="fill: #4c72b0; fill-opacity: 0.7; stroke: #ffffff"/>
    <path d="M 561.985388 471.916875 
L 585.043239 471.916875 
L 585.043239 467.984055 
L 561.985388 467.984055 
z
" clip-path="url(#pc2fe96ae3a)" style="fill: #4c72b0; fill-opacity: 0.7; stroke: #ffffff"/>
    <path d="M 585.043239 471.916875 
L 608.101091 471.916875 
L 608.101091 466.887403 
L 585.043239 466.887403 
z
" clip-path="url(#pc2fe96ae3a)" style="fill: #4c72b0; fill-opacity: 0.7; stroke: #ffffff"/>
    <path d="M 608.101091 471.916875 
L 631.158942 471.916875 
L 631.158942 461.158343 
L 608.101091 461.158343 
z
" clip-path="url(#pc2fe96ae3a)" style="fill: #4c72b0; fill-opacity: 0.7; stroke: #ffffff"/>
    <path d="M 123.886214 471.916875 
L 146.944066 471.916875 
L 146.944066 455.391468 
L 123.886214 455.391468 
z
" clip-path="url(#pc2fe96ae3a)" style="fill: #dd8452; fill-opacity: 0.7; stroke: #ffffff"/>
    <path d="M 146.944066 471.916875 
L 170.001917 471.916875 
L 170.001917 460.004968 
L 146.944066 460.004968 
z
" clip-path="url(#pc2fe96ae3a)" style="fill: #dd8452; fill-opacity: 0.7; stroke: #ffffff"/>
    <path d="M 170.001917 471.916875 
L 193.059768 471.916875 
L 193.059768 462.500796 
L 170.001917 462.500796 
z
" clip-path="url(#pc2fe96ae3a)" style="fill: #dd8452; fill-opacity: 0.7; stroke: #ffffff"/>
    <path d="M 193.059768 471.916875 
L 216.117619 471.916875 
L 216.117619 466.622694 
L 193.059768 466.622694 
z
" clip-path="url(#pc2fe96ae3a)" style="fill: #dd8452; fill-opacity: 0.7; stroke: #ffffff"/>
    <path d="M 216.117619 471.916875 
L 239.175471 471.916875 
L 239.175471 468.267672 
L 216.117619 468.267672 
z
" clip-path="url(#pc2fe96ae3a)" style="fill: #dd8452; fill-opacity: 0.7; stroke: #ffffff"/>
    <path d="M 239.175471 471.916875 
L 262.233322 471.916875 
L 262.233322 469.534494 
L 239.175471 469.534494 
z
" clip-path="url(#pc2fe96ae3a)" style="fill: #dd8452; fill-opacity: 0.7; stroke: #ffffff"/>
    <path d="M 262.233322 471.916875 
L 285.291173 471.916875 
L 285.291173 469.969373 
L 262.233322 469.969373 
z
" clip-path="url(#pc2fe96ae3a)" style="fill: #dd8452; fill-opacity: 0.7; stroke: #ffffff"/>
    <path d="M 285.291173 471.916875 
L 308.349024 471.916875 
L 308.349024 469.742479 
L 285.291173 469.742479 
z
" clip-path="url(#pc2fe96ae3a)" style="fill: #dd8452; fill-opacity: 0.7; stroke: #ffffff"/>
    <path d="M 308.349024 471.916875 
L 331.406876 471.916875 
L 331.406876 469.47777 
L 308.349024 469.47777 
z
" clip-path="url(#pc2fe96ae3a)" style="fill: #dd8452; fill-opacity: 0.7; stroke: #ffffff"/>
    <path d="M 331.406876 471.916875 
L 354.464727 471.916875 
L 354.464727 470.101727 
L 331.406876 470.101727 
z
" clip-path="url(#pc2fe96ae3a)" style="fill: #dd8452; fill-opacity: 0.7; stroke: #ffffff"/>
    <path d="M 354.464727 471.916875 
L 377.522578 471.916875 
L 377.522578 470.082819 
L 354.464727 470.082819 
z
" clip-path="url(#pc2fe96ae3a)" style="fill: #dd8452; fill-opacity: 0.7; stroke: #ffffff"/>
    <path d="M 377.522578 471.916875 
L 400.580429 471.916875 
L 400.580429 470.026096 
L 377.522578 470.026096 
z
" clip-path="url(#pc2fe96ae3a)" style="fill: #dd8452; fill-opacity: 0.7; stroke: #ffffff"/>
    <path d="M 400.580429 471.916875 
L 423.638281 471.916875 
L 423.638281 469.950465 
L 400.580429 469.950465 
z
" clip-path="url(#pc2fe96ae3a)" style="fill: #dd8452; fill-opacity: 0.7; stroke: #ffffff"/>
    <path d="M 423.638281 471.916875 
L 446.696132 471.916875 
L 446.696132 469.402139 
L 423.638281 469.402139 
z
" clip-path="url(#pc2fe96ae3a)" style="fill: #dd8452; fill-opacity: 0.7; stroke: #ffffff"/>
    <path d="M 446.696132 471.916875 
L 469.753983 471.916875 
L 469.753983 469.175246 
L 446.696132 469.175246 
z
" clip-path="url(#pc2fe96ae3a)" style="fill: #dd8452; fill-opacity: 0.7; stroke: #ffffff"/>
    <path d="M 469.753983 471.916875 
L 492.811834 471.916875 
L 492.811834 468.608012 
L 469.753983 468.608012 
z
" clip-path="url(#pc2fe96ae3a)" style="fill: #dd8452; fill-opacity: 0.7; stroke: #ffffff"/>
    <path d="M 492.811834 471.916875 
L 515.869686 471.916875 
L 515.869686 467.757161 
L 492.811834 467.757161 
z
" clip-path="url(#pc2fe96ae3a)" style="fill: #dd8452; fill-opacity: 0.7; stroke: #ffffff"/>
    <path d="M 515.869686 471.916875 
L 538.927537 471.916875 
L 538.927537 466.32017 
L 515.869686 466.32017 
z
" clip-path="url(#pc2fe96ae3a)" style="fill: #dd8452; fill-opacity: 0.7; stroke: #ffffff"/>
    <path d="M 538.927537 471.916875 
L 561.985388 471.916875 
L 561.985388 463.710895 
L 538.927537 463.710895 
z
" clip-path="url(#pc2fe96ae3a)" style="fill: #dd8452; fill-opacity: 0.7; stroke: #ffffff"/>
    <path d="M 561.985388 471.916875 
L 585.043239 471.916875 
L 585.043239 458.832685 
L 561.985388 458.832685 
z
" clip-path="url(#pc2fe96ae3a)" style="fill: #dd8452; fill-opacity: 0.7; stroke: #ffffff"/>
    <path d="M 585.043239 471.916875 
L 608.101091 471.916875 
L 608.101091 447.280026 
L 585.043239 447.280026 
z
" clip-path="url(#pc2fe96ae3a)" style="fill: #dd8452; fill-opacity: 0.7; stroke: #ffffff"/>
    <path d="M 608.101091 471.916875 
L 631.158942 471.916875 
L 631.158942 197.545953 
L 608.101091 197.545953 
z
" clip-path="url(#pc2fe96ae3a)" style="fill: #dd8452; fill-opacity: 0.7; stroke: #ffffff"/>
   </g>
   <g id="patch_3">
    <path d="M 98.522578 471.916875 
L 98.522578 28.396875 
" style="fill: none; stroke: #262626; stroke-width: 1.875; stroke-linejoin: miter; stroke-linecap: square"/>
   </g>
   <g id="patch_4">
    <path d="M 656.522578 471.916875 
L 656.522578 28.396875 
" style="fill: none; stroke: #262626; stroke-width: 1.875; stroke-linejoin: miter; stroke-linecap: square"/>
   </g>
   <g id="patch_5">
    <path d="M 98.522578 471.916875 
L 656.522578 471.916875 
" style="fill: none; stroke: #262626; stroke-width: 1.875; stroke-linejoin: miter; stroke-linecap: square"/>
   </g>
   <g id="patch_6">
    <path d="M 98.522578 28.396875 
L 656.522578 28.396875 
" style="fill: none; stroke: #262626; stroke-width: 1.875; stroke-linejoin: miter; stroke-linecap: square"/>
   </g>
   <g id="text_14">
    <!-- Probability of CAT in Documents -->
    <g style="fill: #262626" transform="translate(195.655391 22.396875)scale(0.2 -0.2)">
     <defs>
      <path id="DejaVuSans-Bold-66" d="M 2841 4863 
L 2841 4128 
L 2222 4128 
Q 1984 4128 1890 4042 
Q 1797 3956 1797 3744 
L 1797 3500 
L 2753 3500 
L 2753 2700 
L 1797 2700 
L 1797 0 
L 678 0 
L 678 2700 
L 122 2700 
L 122 3500 
L 678 3500 
L 678 3744 
Q 678 4316 997 4589 
Q 1316 4863 1984 4863 
L 2841 4863 
z
" transform="scale(0.015625)"/>
      <path id="DejaVuSans-Bold-41" d="M 3419 850 
L 1538 850 
L 1241 0 
L 31 0 
L 1759 4666 
L 3194 4666 
L 4922 0 
L 3713 0 
L 3419 850 
z
M 1838 1716 
L 3116 1716 
L 2478 3572 
L 1838 1716 
z
" transform="scale(0.015625)"/>
      <path id="DejaVuSans-Bold-54" d="M 31 4666 
L 4331 4666 
L 4331 3756 
L 2784 3756 
L 2784 0 
L 1581 0 
L 1581 3756 
L 31 3756 
L 31 4666 
z
" transform="scale(0.015625)"/>
      <path id="DejaVuSans-Bold-73" d="M 3272 3391 
L 3272 2541 
Q 2913 2691 2578 2766 
Q 2244 2841 1947 2841 
Q 1628 2841 1473 2761 
Q 1319 2681 1319 2516 
Q 1319 2381 1436 2309 
Q 1553 2238 1856 2203 
L 2053 2175 
Q 2913 2066 3209 1816 
Q 3506 1566 3506 1031 
Q 3506 472 3093 190 
Q 2681 -91 1863 -91 
Q 1516 -91 1145 -36 
Q 775 19 384 128 
L 384 978 
Q 719 816 1070 734 
Q 1422 653 1784 653 
Q 2113 653 2278 743 
Q 2444 834 2444 1013 
Q 2444 1163 2330 1236 
Q 2216 1309 1875 1350 
L 1678 1375 
Q 931 1469 631 1722 
Q 331 1975 331 2491 
Q 331 3047 712 3315 
Q 1094 3584 1881 3584 
Q 2191 3584 2531 3537 
Q 2872 3491 3272 3391 
z
" transform="scale(0.015625)"/>
     </defs>
     <use xlink:href="#DejaVuSans-Bold-50"/>
     <use xlink:href="#DejaVuSans-Bold-72" x="73.291016"/>
     <use xlink:href="#DejaVuSans-Bold-6f" x="122.607422"/>
     <use xlink:href="#DejaVuSans-Bold-62" x="191.308594"/>
     <use xlink:href="#DejaVuSans-Bold-61" x="262.890625"/>
     <use xlink:href="#DejaVuSans-Bold-62" x="330.371094"/>
     <use xlink:href="#DejaVuSans-Bold-69" x="401.953125"/>
     <use xlink:href="#DejaVuSans-Bold-6c" x="436.230469"/>
     <use xlink:href="#DejaVuSans-Bold-69" x="470.507812"/>
     <use xlink:href="#DejaVuSans-Bold-74" x="504.785156"/>
     <use xlink:href="#DejaVuSans-Bold-79" x="552.587891"/>
     <use xlink:href="#DejaVuSans-Bold-20" x="617.773438"/>
     <use xlink:href="#DejaVuSans-Bold-6f" x="652.587891"/>
     <use xlink:href="#DejaVuSans-Bold-66" x="721.289062"/>
     <use xlink:href="#DejaVuSans-Bold-20" x="764.794922"/>
     <use xlink:href="#DejaVuSans-Bold-43" x="799.609375"/>
     <use xlink:href="#DejaVuSans-Bold-41" x="872.998047"/>
     <use xlink:href="#DejaVuSans-Bold-54" x="942.640625"/>
     <use xlink:href="#DejaVuSans-Bold-20" x="1010.853516"/>
     <use xlink:href="#DejaVuSans-Bold-69" x="1045.667969"/>
     <use xlink:href="#DejaVuSans-Bold-6e" x="1079.945312"/>
     <use xlink:href="#DejaVuSans-Bold-20" x="1151.136719"/>
     <use xlink:href="#DejaVuSans-Bold-44" x="1185.951172"/>
     <use xlink:href="#DejaVuSans-Bold-6f" x="1268.958984"/>
     <use xlink:href="#DejaVuSans-Bold-63" x="1337.660156"/>
     <use xlink:href="#DejaVuSans-Bold-75" x="1396.9375"/>
     <use xlink:href="#DejaVuSans-Bold-6d" x="1468.128906"/>
     <use xlink:href="#DejaVuSans-Bold-65" x="1572.328125"/>
     <use xlink:href="#DejaVuSans-Bold-6e" x="1640.150391"/>
     <use xlink:href="#DejaVuSans-Bold-74" x="1711.341797"/>
     <use xlink:href="#DejaVuSans-Bold-73" x="1759.144531"/>
    </g>
   </g>
  </g>
  <g id="legend_1">
   <g id="patch_7">
    <path d="M 713.3 238.699844 
L 756.153594 238.699844 
Q 758.353594 238.699844 758.353594 236.499844 
L 758.353594 188.194219 
Q 758.353594 185.994219 756.153594 185.994219 
L 713.3 185.994219 
Q 711.1 185.994219 711.1 188.194219 
L 711.1 236.499844 
Q 711.1 238.699844 713.3 238.699844 
z
" style="fill: #ffffff; opacity: 0.8; stroke: #cccccc; stroke-linejoin: miter"/>
   </g>
   <g id="text_15">
    <!-- label -->
    <g style="fill: #262626" transform="translate(718.199609 199.512344)scale(0.12 -0.12)">
     <use xlink:href="#DejaVuSans-Bold-6c"/>
     <use xlink:href="#DejaVuSans-Bold-61" x="34.277344"/>
     <use xlink:href="#DejaVuSans-Bold-62" x="101.757812"/>
     <use xlink:href="#DejaVuSans-Bold-65" x="173.339844"/>
     <use xlink:href="#DejaVuSans-Bold-6c" x="241.162109"/>
    </g>
   </g>
   <g id="patch_8">
    <path d="M 715.5 215.86625 
L 737.5 215.86625 
L 737.5 208.16625 
L 715.5 208.16625 
z
" style="fill: #4c72b0; fill-opacity: 0.7; stroke: #ffffff; stroke-linejoin: miter"/>
   </g>
   <g id="text_16">
    <!-- 0 -->
    <g style="fill: #262626" transform="translate(746.3 215.86625)scale(0.11 -0.11)">
     <use xlink:href="#DejaVuSans-Bold-30"/>
    </g>
   </g>
   <g id="patch_9">
    <path d="M 715.5 232.012187 
L 737.5 232.012187 
L 737.5 224.312187 
L 715.5 224.312187 
z
" style="fill: #dd8452; fill-opacity: 0.7; stroke: #ffffff; stroke-linejoin: miter"/>
   </g>
   <g id="text_17">
    <!-- 1 -->
    <g style="fill: #262626" transform="translate(746.3 232.012187)scale(0.11 -0.11)">
     <use xlink:href="#DejaVuSans-Bold-31"/>
    </g>
   </g>
  </g>
 </g>
 <defs>
  <clipPath id="pc2fe96ae3a">
   <rect x="98.522578" y="28.396875" width="558" height="443.52"/>
  </clipPath>
 </defs>
</svg>
