<svg xmlns="http://www.w3.org/2000/svg" xmlns:xlink="http://www.w3.org/1999/xlink" xmlns:lucid="lucid" width="1410" height="1095.8"><g transform="translate(180 220)" lucid:page-tab-id="0_0"><path d="M-500-500h2000v1500H-500z" fill="#fff"/><path d="M-160 238.66a6 6 0 0 1 6-6H68a6 6 0 0 1 6 6v108.4c-39.08-19.1-63.4-19.1-78.16-19.1-23.4 0-54.52 19.1-77.92 19.1-14.5 0-39.08 0-77.92-19.1z" stroke="#3a414a" fill="#dedeff"/><path d="M-147 248.75a6 6 0 0 1 6-6H81a6 6 0 0 1 6 6v108.4c-39.08-19.1-63.4-19.1-78.16-19.1-23.4 0-54.52 19.1-77.92 19.1-14.5 0-39.08 0-77.92-19.1z" stroke="#3a414a" fill="#dedeff"/><path d="M-134 258.85a6 6 0 0 1 6-6H94a6 6 0 0 1 6 6v108.4c-39.08-19.1-63.4-19.1-78.16-19.1-23.4 0-54.52 19.1-77.92 19.1-14.5 0-39.08 0-77.92-19.1z" stroke="#3a414a" fill="#dedeff"/><use xlink:href="#a" transform="matrix(1,0,0,1,-129,257.84458393661447) translate(36.123456790123456 30.55555555555555)"/><use xlink:href="#b" transform="matrix(1,0,0,1,-129,257.84458393661447) translate(84.4320987654321 30.55555555555555)"/><use xlink:href="#c" transform="matrix(1,0,0,1,-129,257.84458393661447) translate(27.524691358024697 67.88888888888889)"/><path d="M101 300.06h111.87a.04.04 0 0 1 .04.05.04.04 0 0 0 .06.05h95.98" stroke="#3a414a" fill="none"/><path d="M101 300.56h-.5v-1h.5z" stroke="#3a414a" stroke-width=".05" fill="#3a414a"/><path d="M323.7 300.15l-14.26 4.63v-9.27z" stroke="#3a414a" fill="#3a414a"/><path d="M549.82 708.92c0-1.44-.72-2.7-1.98-3.42l-19.62-10.98v-25.38c-.18-1.26-.72-2.52-1.98-3.24l-41.94-25.38c-1.26-.72-2.7-.72-3.96 0l-20.52 12.06-20.34-12.24c-1.08-.72-2.52-.72-3.78 0l-42.3 25.56c-1.26.72-1.98 1.98-1.98 3.24v25.38l-19.44 10.98c-1.26.72-1.98 1.98-1.98 3.42v41.76c0 1.44.72 2.7 1.98 3.42l19.44 10.98v25.2c0 1.44.72 2.7 1.98 3.42l42.12 25.56c.54.36 1.26.54 1.98.54s1.44-.18 1.98-.54l20.34-12.24 20.34 12.24c.72.36 1.44.54 2.16.54.72 0 1.44-.18 1.98-.54l42.12-25.56c1.26-.72 1.98-1.8 1.98-3.24v-25.2l19.62-10.98c1.26-.72 1.98-1.98 1.98-3.42v-41.94zm-93.78 91.44l-18.54 10.8-38.16-23.04v-25.38c0-1.44-.72-2.7-1.98-3.42l-7.02-3.78h20.16v29.34c0 2.16 1.62 3.96 3.78 3.96h12.96c1.08 2.7 3.06 4.68 5.94 5.76 5.4 2.16 11.7-.36 13.86-5.76 2.16-5.4-.54-11.52-5.94-13.68-5.58-2.16-11.7.36-13.86 5.76h-9v-29.34c0-2.16-1.62-3.96-3.96-3.96h-36.36v-36.54l19.62-10.98c1.26-.72 1.98-1.8 1.98-3.24v-9.36h5.94v20.16c-2.88 1.26-4.86 3.06-5.94 5.94-2.16 5.4.54 11.52 5.94 13.68s11.7-.54 13.86-5.94-.54-11.52-5.94-13.68V687.5h10.26c1.08 2.7 3.24 4.68 5.94 5.76 5.4 2.16 11.7-.36 13.86-5.76 2.16-5.4-.54-11.52-5.94-13.68s-11.7.54-13.86 5.94h-24.3v-8.28l38.16-23.04 18.54 10.8v46.62H433.9c-2.16 0-3.96 1.8-3.96 3.96v27.54c-2.88 1.08-4.86 3.06-5.94 5.76-2.16 5.4.54 11.52 5.94 13.68s11.7-.54 13.86-5.94-.54-11.52-5.94-13.5V713.6h18.18v16.38zm-21.6-15.66c-.18-1.44.9-2.88 2.34-3.06 1.44-.18 2.88.9 3.06 2.52v.54c.18 1.44-.9 2.88-2.34 3.06-1.62.18-2.88-.9-3.06-2.34v-.72zm-22.5-67.32c0 1.62-1.08 2.88-2.7 2.88-1.44 0-2.7-1.26-2.7-2.7 0-1.62 1.08-2.7 2.7-2.88 1.44 0 2.7 1.26 2.7 2.7zm18.72-33.84c-.18-1.44.9-2.88 2.34-3.06 1.62-.18 2.88.9 3.06 2.52v.54c.18 1.62-.9 2.88-2.34 3.06-1.44.18-2.88-.9-3.06-2.34v-.72zm5.94 63.54c0 1.44-1.26 2.7-2.7 2.7-1.62 0-2.7-1.26-2.7-2.7 0-1.62 1.08-2.88 2.7-2.88 1.44 0 2.7 1.26 2.7 2.88zm85.86 12.24c-1.26.72-1.98 1.98-1.98 3.42v25.38l-33.66 20.34v-27.9h7.56c1.08 2.88 3.06 4.86 5.94 5.94 5.4 2.16 11.52-.54 13.68-5.94 2.16-5.22-.36-11.34-5.94-13.5-5.4-2.16-11.52.36-13.68 5.76h-11.52c-2.16 0-3.96 1.8-3.96 3.96v32.4l-15.12-8.82V696.68h12.06v9c-2.7 1.08-4.68 3.06-5.94 5.94-2.16 5.4.54 11.52 5.94 13.68 5.58 1.98 11.7-.54 13.86-5.94s-.54-11.52-5.94-13.68v-9h12.42c2.16 0 3.96-1.62 3.96-3.78v-7.74c2.88-1.26 4.86-3.06 5.94-5.94 2.16-5.4-.54-11.52-5.94-13.68s-11.7.54-13.86 5.94.54 11.52 5.94 13.68v3.78h-28.44v-29.7l18.54-10.8 38.16 23.04v25.38c0 1.44.72 2.7 1.98 3.42l19.62 10.8v13.14h-37.8c-2.16 0-3.96 1.8-3.96 3.96v19.44h-9.54c-1.62-4.14-5.4-6.66-9.9-6.66s-8.28 2.52-9.9 6.66c-2.16 5.4.54 11.52 5.94 13.68s11.7-.54 13.86-5.94h13.32c2.34 0 3.96-1.8 3.96-3.96v-19.44h33.84v16.56zm-21.06 17.46c0-1.62 1.26-2.7 2.7-2.7 1.62 0 2.88 1.08 2.88 2.7 0 1.44-1.26 2.7-2.88 2.7-1.44 0-2.7-1.26-2.7-2.7zm-18.72-61.38c0 1.62-1.26 2.7-2.88 2.7-1.44 0-2.7-1.08-2.7-2.7 0-1.44 1.26-2.7 2.7-2.7 1.62 0 2.88 1.26 2.88 2.7zm10.8-40.14c0-1.44 1.26-2.7 2.7-2.7 1.62 0 2.7 1.26 2.7 2.7 0 1.62-1.08 2.88-2.7 2.88-1.44 0-2.7-1.26-2.7-2.88zm-9.9 76.32c0 1.44-1.26 2.7-2.88 2.7-1.44 0-2.7-1.26-2.7-2.7 0-1.44 1.26-2.7 2.7-2.7 1.62 0 2.88 1.26 2.88 2.7z" stroke="#fff" stroke-opacity="0" fill="#1c7b68"/><use xlink:href="#d" transform="matrix(1,0,0,1,340,828.8018651582227) translate(40.14814814814817 24.888888888888886)"/><use xlink:href="#e" transform="matrix(1,0,0,1,340,828.8018651582227) translate(110.23456790123457 24.888888888888886)"/><path d="M461 633.97h-2V546.2h2zm0-109.1h-2V419.58h2z" stroke="#008a0e" stroke-width=".05" fill="#008a0e"/><path d="M460 418.6l1-.07v1.08h-2v-1.07z" fill="#008a0e"/><path d="M460 418.56l1.02-.06v1.14h-2.04v-1.14zm-.98 1.03h1.96v-1.05l-.98.06-.98-.05z" stroke="#008a0e" stroke-width=".05" fill="#008a0e"/><path d="M460 649.24l-4.63-14.27h9.26z" fill="#008a0e"/><path d="M460 652.48l-6-18.5h12zm-3.26-16.5L460 646l3.26-10.03z" stroke="#008a0e" stroke-width=".05" fill="#008a0e"/><use xlink:href="#f" transform="matrix(1,0,0,1,444.69135802469134,524.864246520422) translate(0 14.222222222222223)"/><path d="M320-194a6 6 0 0 1 6-6h268a6 6 0 0 1 6 6v128a6 6 0 0 1-6 6H326a6 6 0 0 1-6-6z" stroke="#3a414a" fill="#ffd9d9"/><use xlink:href="#g" transform="matrix(1,0,0,1,332,-188) translate(41.75308641975312 46.63888888888888)"/><use xlink:href="#h" transform="matrix(1,0,0,1,332,-188) translate(153.8395061728395 46.63888888888888)"/><use xlink:href="#i" transform="matrix(1,0,0,1,332,-188) translate(25.765432098765473 83.9722222222222)"/><use xlink:href="#j" transform="matrix(1,0,0,1,332,-188) translate(186.16049382716048 83.9722222222222)"/><use xlink:href="#k" transform="matrix(1,0,0,1,332,-188) translate(212.95061728395058 83.9722222222222)"/><path d="M461 180.3h-2V71.58h2zm0-130.06h-2V-41h2z" stroke="#e81313" stroke-width=".05" fill="#e81313"/><path d="M461 181.37l-1-.06-1 .07v-1.08h2z" fill="#e81313"/><path d="M461.02 181.4l-1.02-.06-1.02.06v-1.14h2.04zm-2-1.1v1.05l.98-.06.98.05v-1.03z" stroke="#e81313" stroke-width=".05" fill="#e81313"/><path d="M464.63-42h-9.26L460-56.26z" fill="#e81313"/><path d="M466-41h-12l6-18.5zm-9.26-2h6.52L460-53.03z" stroke="#e81313" stroke-width=".05" fill="#e81313"/><use xlink:href="#l" transform="matrix(1,0,0,1,448.1975308641975,50.240899488513946) translate(0 14.222222222222223)"/><path d="M1025 183.33a9 9 0 0 1 10 0l170 113.3a4 4 0 0 1 0 6.65l-170 113.3a9 9 0 0 1-10 0l-170-113.3a4 4 0 0 1 0-6.66z" stroke="#3a414a" fill="#fff"/><use xlink:href="#m" transform="matrix(1,0,0,1,855,185) translate(145.7087037037037 60.826388888888886)"/><use xlink:href="#n" transform="matrix(1,0,0,1,855,185) translate(61.40623456790127 98.15972222222221)"/><use xlink:href="#o" transform="matrix(1,0,0,1,855,185) translate(221.71487654320987 98.15972222222221)"/><use xlink:href="#p" transform="matrix(1,0,0,1,855,185) translate(81.41240740740741 135.49305555555554)"/><use xlink:href="#q" transform="matrix(1,0,0,1,855,185) translate(250.44944444444442 135.49305555555554)"/><use xlink:href="#r" transform="matrix(1,0,0,1,855,185) translate(100.03586419753087 172.82638888888889)"/><path d="M1031 641h-2v-92.13h2zm0-113.47h-2V417.9h2z" stroke="#008a0e" stroke-width=".05" fill="#008a0e"/><path d="M1031 417.93h-2v-4.03h2z" stroke="#008a0e" stroke-width=".05" fill="#008a0e"/><path d="M1030 656.26l-4.63-14.26h9.27z" fill="#008a0e"/><path d="M1030 659.5l-6-18.5h12zm-3.26-16.5l3.26 10.03 3.26-10.03z" stroke="#008a0e" stroke-width=".05" fill="#008a0e"/><use xlink:href="#f" transform="matrix(1,0,0,1,1014.6913580246913,527.5354598332282) translate(0 14.222222222222223)"/><path d="M1025.1-130.92l1.06.26 1.02.42.94.57.83.72.72.83.57.94.42 1.02.26 1.06.08 1.06V182h-2v-305.96l-.07-.82-.18-.76-.3-.73-.4-.67-.52-.6-.6-.5-.66-.4-.73-.3-.76-.2-.82-.06h-40.4v-2h40.48zM619-129v-2h340.95v2z" stroke="#e81313" stroke-width=".05" fill="#e81313"/><path d="M1031 186h-2v-4.03h2z" stroke="#e81313" stroke-width=".05" fill="#e81313"/><path d="M618-125.36L603.74-130l14.26-4.63z" fill="#e81313"/><path d="M619-124l-18.5-6 18.5-6zm-12.03-6l10.03 3.26v-6.52z" stroke="#e81313" stroke-width=".05" fill="#e81313"/><g><use xlink:href="#l" transform="matrix(1,0,0,1,959.9458706538586,-140.66666666666666) translate(0 14.222222222222223)"/></g><path d="M550.5 729.8h146.3a6 6 0 0 0 6-6V305.95a6 6 0 0 1 6-6h130.44" stroke="#3a414a" fill="none"/><path d="M550.5 730.3h-.5v-1h.5z" stroke="#3a414a" stroke-width=".05" fill="#3a414a"/><path d="M854 299.95l-14.26 4.64v-9.3z" stroke="#3a414a" fill="#3a414a"/><path d="M890 666a6 6 0 0 1 6-6h268a6 6 0 0 1 6 6v128a6 6 0 0 1-6 6H896a6 6 0 0 1-6-6z" stroke="#3a414a" fill="#e3fae3"/><g><use xlink:href="#g" transform="matrix(1,0,0,1,902,672) translate(41.75308641975312 46.63888888888888)"/><use xlink:href="#h" transform="matrix(1,0,0,1,902,672) translate(153.8395061728395 46.63888888888888)"/><use xlink:href="#i" transform="matrix(1,0,0,1,902,672) translate(25.765432098765473 83.9722222222222)"/><use xlink:href="#j" transform="matrix(1,0,0,1,902,672) translate(186.16049382716048 83.9722222222222)"/><use xlink:href="#s" transform="matrix(1,0,0,1,902,672) translate(212.95061728395058 83.9722222222222)"/></g><path d="M455 183.33a9 9 0 0 1 10 0l170 113.3a4 4 0 0 1 0 6.65l-170 113.3a9 9 0 0 1-10 0l-170-113.3a4 4 0 0 1 0-6.66z" stroke="#3a414a" fill="#fff"/><g><use xlink:href="#t" transform="matrix(1,0,0,1,285,185) translate(106.94944444444445 103.95138888888889)"/><use xlink:href="#u" transform="matrix(1,0,0,1,285,185) translate(81.06672839506174 141.28472222222223)"/></g><defs><path fill="#3a414a" d="M199 0l-22-63H83L61 0H9l90-248h61L250 0h-51zm-33-102l-36-108c-10 38-24 72-36 108h72" id="v"/><path fill="#3a414a" d="M25 0v-261h50V0H25" id="w"/><g id="a"><use transform="matrix(0.08641975308641976,0,0,0.08641975308641976,0,0)" xlink:href="#v"/><use transform="matrix(0.08641975308641976,0,0,0.08641975308641976,22.38271604938272,0)" xlink:href="#w"/><use transform="matrix(0.08641975308641976,0,0,0.08641975308641976,31.024691358024693,0)" xlink:href="#w"/></g><path fill="#3a414a" d="M24-248c93 1 206-16 204 79-1 75-69 88-152 82V0H24v-248zm52 121c47 0 100 7 100-41 0-47-54-39-100-39v80" id="x"/><path fill="#3a414a" d="M133-34C117-15 103 5 69 4 32 3 11-16 11-54c-1-60 55-63 116-61 1-26-3-47-28-47-18 1-26 9-28 27l-52-2c7-38 36-58 82-57s74 22 75 68l1 82c-1 14 12 18 25 15v27c-30 8-71 5-69-32zm-48 3c29 0 43-24 42-57-32 0-66-3-65 30 0 17 8 27 23 27" id="y"/><path fill="#3a414a" d="M115-3C79 11 28 4 28-45v-112H4v-33h27l15-45h31v45h36v33H77v99c-1 23 16 31 38 25v30" id="z"/><path fill="#3a414a" d="M25-224v-37h50v37H25zM25 0v-190h50V0H25" id="A"/><path fill="#3a414a" d="M185-48c-13 30-37 53-82 52C43 2 14-33 14-96s30-98 90-98c62 0 83 45 84 108H66c0 31 8 55 39 56 18 0 30-7 34-22zm-45-69c5-46-57-63-70-21-2 6-4 13-4 21h74" id="B"/><path fill="#3a414a" d="M135-194c87-1 58 113 63 194h-50c-7-57 23-157-34-157-59 0-34 97-39 157H25l-1-190h47c2 12-1 28 3 38 12-26 28-41 61-42" id="C"/><g id="b"><use transform="matrix(0.08641975308641976,0,0,0.08641975308641976,0,0)" xlink:href="#x"/><use transform="matrix(0.08641975308641976,0,0,0.08641975308641976,20.740740740740744,0)" xlink:href="#y"/><use transform="matrix(0.08641975308641976,0,0,0.08641975308641976,38.0246913580247,0)" xlink:href="#z"/><use transform="matrix(0.08641975308641976,0,0,0.08641975308641976,48.308641975308646,0)" xlink:href="#A"/><use transform="matrix(0.08641975308641976,0,0,0.08641975308641976,56.95061728395062,0)" xlink:href="#B"/><use transform="matrix(0.08641975308641976,0,0,0.08641975308641976,74.23456790123457,0)" xlink:href="#C"/><use transform="matrix(0.08641975308641976,0,0,0.08641975308641976,93.16049382716048,0)" xlink:href="#z"/></g><path fill="#3a414a" d="M24-248c120-7 223 5 221 122C244-46 201 0 124 0H24v-248zM76-40c74 7 117-18 117-86 0-67-45-88-117-82v168" id="D"/><path fill="#3a414a" d="M110-194c64 0 96 36 96 99 0 64-35 99-97 99-61 0-95-36-95-99 0-62 34-99 96-99zm-1 164c35 0 45-28 45-65 0-40-10-65-43-65-34 0-45 26-45 65 0 36 10 65 43 65" id="E"/><path fill="#3a414a" d="M190-63c-7 42-38 67-86 67-59 0-84-38-90-98-12-110 154-137 174-36l-49 2c-2-19-15-32-35-32-30 0-35 28-38 64-6 74 65 87 74 30" id="F"/><path fill="#3a414a" d="M85 4C-2 5 27-109 22-190h50c7 57-23 150 33 157 60-5 35-97 40-157h50l1 190h-47c-2-12 1-28-3-38-12 25-28 42-61 42" id="G"/><path fill="#3a414a" d="M220-157c-53 9-28 100-34 157h-49v-107c1-27-5-49-29-50C55-147 81-57 75 0H25l-1-190h47c2 12-1 28 3 38 10-53 101-56 108 0 13-22 24-43 59-42 82 1 51 116 57 194h-49v-107c-1-25-5-48-29-50" id="H"/><path fill="#3a414a" d="M137-138c1-29-70-34-71-4 15 46 118 7 119 86 1 83-164 76-172 9l43-7c4 19 20 25 44 25 33 8 57-30 24-41C81-84 22-81 20-136c-2-80 154-74 161-7" id="I"/><g id="c"><use transform="matrix(0.08641975308641976,0,0,0.08641975308641976,0,0)" xlink:href="#D"/><use transform="matrix(0.08641975308641976,0,0,0.08641975308641976,22.38271604938272,0)" xlink:href="#E"/><use transform="matrix(0.08641975308641976,0,0,0.08641975308641976,41.308641975308646,0)" xlink:href="#F"/><use transform="matrix(0.08641975308641976,0,0,0.08641975308641976,58.592592592592595,0)" xlink:href="#G"/><use transform="matrix(0.08641975308641976,0,0,0.08641975308641976,77.51851851851852,0)" xlink:href="#H"/><use transform="matrix(0.08641975308641976,0,0,0.08641975308641976,105.17283950617283,0)" xlink:href="#B"/><use transform="matrix(0.08641975308641976,0,0,0.08641975308641976,122.45679012345678,0)" xlink:href="#C"/><use transform="matrix(0.08641975308641976,0,0,0.08641975308641976,141.3827160493827,0)" xlink:href="#z"/><use transform="matrix(0.08641975308641976,0,0,0.08641975308641976,151.66666666666666,0)" xlink:href="#I"/></g><path fill="#3a414a" d="M175 0L67-191c6 58 2 128 3 191H24v-248h59L193-55c-6-58-2-129-3-193h46V0h-61" id="J"/><path fill="#3a414a" d="M24 0v-248h52v208h133V0H24" id="K"/><g id="d"><use transform="matrix(0.08641975308641973,0,0,0.08641975308641973,0,0)" xlink:href="#J"/><use transform="matrix(0.08641975308641973,0,0,0.08641975308641973,22.38271604938271,0)" xlink:href="#K"/><use transform="matrix(0.08641975308641973,0,0,0.08641975308641973,41.30864197530863,0)" xlink:href="#x"/></g><path fill="#3a414a" d="M230 0l2-204L168 0h-37L68-204 70 0H24v-248h70l56 185 57-185h69V0h-46" id="L"/><path fill="#3a414a" d="M88-194c31-1 46 15 58 34l-1-101h50l1 261h-48c-2-10 0-23-3-31C134-8 116 4 84 4 32 4 16-41 15-95c0-56 19-97 73-99zm17 164c33 0 40-30 41-66 1-37-9-64-41-64s-38 30-39 65c0 43 13 65 39 65" id="M"/><g id="e"><use transform="matrix(0.08641975308641973,0,0,0.08641975308641973,0,0)" xlink:href="#L"/><use transform="matrix(0.08641975308641973,0,0,0.08641975308641973,25.8395061728395,0)" xlink:href="#E"/><use transform="matrix(0.08641975308641973,0,0,0.08641975308641973,44.765432098765416,0)" xlink:href="#M"/><use transform="matrix(0.08641975308641973,0,0,0.08641975308641973,63.69135802469135,0)" xlink:href="#B"/><use transform="matrix(0.08641975308641973,0,0,0.08641975308641973,80.97530864197529,0)" xlink:href="#w"/></g><path fill="#333" d="M146-102V0H94v-102L6-248h54l60 105 60-105h54" id="N"/><path fill="#333" d="M185-48c-13 30-37 53-82 52C43 2 14-33 14-96s30-98 90-98c62 0 83 45 84 108H66c0 31 8 55 39 56 18 0 30-7 34-22zm-45-69c5-46-57-63-70-21-2 6-4 13-4 21h74" id="O"/><path fill="#333" d="M137-138c1-29-70-34-71-4 15 46 118 7 119 86 1 83-164 76-172 9l43-7c4 19 20 25 44 25 33 8 57-30 24-41C81-84 22-81 20-136c-2-80 154-74 161-7" id="P"/><g id="f"><use transform="matrix(0.04938271604938272,0,0,0.04938271604938272,0,0)" xlink:href="#N"/><use transform="matrix(0.04938271604938272,0,0,0.04938271604938272,10.864197530864198,0)" xlink:href="#O"/><use transform="matrix(0.04938271604938272,0,0,0.04938271604938272,20.74074074074074,0)" xlink:href="#P"/></g><g id="g"><use transform="matrix(0.0864197530864197,0,0,0.0864197530864197,0,0)" xlink:href="#x"/><use transform="matrix(0.0864197530864197,0,0,0.0864197530864197,20.74074074074073,0)" xlink:href="#y"/><use transform="matrix(0.0864197530864197,0,0,0.0864197530864197,38.02469135802467,0)" xlink:href="#z"/><use transform="matrix(0.0864197530864197,0,0,0.0864197530864197,48.30864197530862,0)" xlink:href="#A"/><use transform="matrix(0.0864197530864197,0,0,0.0864197530864197,56.9506172839506,0)" xlink:href="#B"/><use transform="matrix(0.0864197530864197,0,0,0.0864197530864197,74.23456790123453,0)" xlink:href="#C"/><use transform="matrix(0.0864197530864197,0,0,0.0864197530864197,93.16049382716044,0)" xlink:href="#z"/></g><path fill="#3a414a" d="M147 0H94L2-248h55l64 206c17-72 42-137 63-206h54" id="Q"/><path fill="#3a414a" d="M136-208V0H84v-208H4v-40h212v40h-80" id="R"/><path fill="#3a414a" d="M24 0v-248h195v40H76v63h132v40H76v65h150V0H24" id="S"/><g id="h"><use transform="matrix(0.0864197530864197,0,0,0.0864197530864197,0,0)" xlink:href="#Q"/><use transform="matrix(0.0864197530864197,0,0,0.0864197530864197,20.74074074074073,0)" xlink:href="#R"/><use transform="matrix(0.0864197530864197,0,0,0.0864197530864197,39.66666666666664,0)" xlink:href="#S"/></g><path fill="#3a414a" d="M135-150c-39-12-60 13-60 57V0H25l-1-190h47c2 13-1 29 3 40 6-28 27-53 61-41v41" id="T"/><g id="i"><use transform="matrix(0.0864197530864197,0,0,0.0864197530864197,0,0)" xlink:href="#x"/><use transform="matrix(0.0864197530864197,0,0,0.0864197530864197,20.74074074074073,0)" xlink:href="#T"/><use transform="matrix(0.0864197530864197,0,0,0.0864197530864197,32.83950617283949,0)" xlink:href="#B"/><use transform="matrix(0.0864197530864197,0,0,0.0864197530864197,50.12345679012343,0)" xlink:href="#M"/><use transform="matrix(0.0864197530864197,0,0,0.0864197530864197,69.04938271604935,0)" xlink:href="#A"/><use transform="matrix(0.0864197530864197,0,0,0.0864197530864197,77.69135802469133,0)" xlink:href="#F"/><use transform="matrix(0.0864197530864197,0,0,0.0864197530864197,94.97530864197526,0)" xlink:href="#z"/><use transform="matrix(0.0864197530864197,0,0,0.0864197530864197,105.25925925925921,0)" xlink:href="#A"/><use transform="matrix(0.0864197530864197,0,0,0.0864197530864197,113.9012345679012,0)" xlink:href="#E"/><use transform="matrix(0.0864197530864197,0,0,0.0864197530864197,132.8271604938271,0)" xlink:href="#C"/></g><path fill="#3a414a" d="M15-148v-39h180v39H15zm0 97v-39h180v39H15" id="U"/><use transform="matrix(0.0864197530864197,0,0,0.0864197530864197,0,0)" xlink:href="#U" id="j"/><path fill="#3a414a" d="M101-251c68 0 84 54 84 127C185-50 166 4 99 4S15-52 14-124c-1-75 17-127 87-127zm-1 216c37-5 36-46 36-89s4-89-36-89c-39 0-36 45-36 89 0 43-3 85 36 89" id="V"/><use transform="matrix(0.0864197530864197,0,0,0.0864197530864197,0,0)" xlink:href="#V" id="k"/><path fill="#333" d="M175 0L67-191c6 58 2 128 3 191H24v-248h59L193-55c-6-58-2-129-3-193h46V0h-61" id="W"/><path fill="#333" d="M110-194c64 0 96 36 96 99 0 64-35 99-97 99-61 0-95-36-95-99 0-62 34-99 96-99zm-1 164c35 0 45-28 45-65 0-40-10-65-43-65-34 0-45 26-45 65 0 36 10 65 43 65" id="X"/><g id="l"><use transform="matrix(0.04938271604938272,0,0,0.04938271604938272,0,0)" xlink:href="#W"/><use transform="matrix(0.04938271604938272,0,0,0.04938271604938272,12.790123456790125,0)" xlink:href="#X"/></g><path fill="#3a414a" d="M123 10C108 53 80 86 19 72V37c35 8 53-11 59-39L3-190h52l48 148c12-52 28-100 44-148h51" id="Y"/><g id="m"><use transform="matrix(0.08641975308641975,0,0,0.08641975308641975,0,0)" xlink:href="#v"/><use transform="matrix(0.08641975308641975,0,0,0.08641975308641975,22.382716049382715,0)" xlink:href="#C"/><use transform="matrix(0.08641975308641975,0,0,0.08641975308641975,41.30864197530864,0)" xlink:href="#Y"/></g><g id="n"><use transform="matrix(0.08641975308641975,0,0,0.08641975308641975,0,0)" xlink:href="#D"/><use transform="matrix(0.08641975308641975,0,0,0.08641975308641975,22.382716049382715,0)" xlink:href="#E"/><use transform="matrix(0.08641975308641975,0,0,0.08641975308641975,41.30864197530864,0)" xlink:href="#F"/><use transform="matrix(0.08641975308641975,0,0,0.08641975308641975,58.59259259259259,0)" xlink:href="#G"/><use transform="matrix(0.08641975308641975,0,0,0.08641975308641975,77.5185185185185,0)" xlink:href="#H"/><use transform="matrix(0.08641975308641975,0,0,0.08641975308641975,105.17283950617282,0)" xlink:href="#B"/><use transform="matrix(0.08641975308641975,0,0,0.08641975308641975,122.45679012345677,0)" xlink:href="#C"/><use transform="matrix(0.08641975308641975,0,0,0.08641975308641975,141.38271604938268,0)" xlink:href="#z"/></g><path fill="#3a414a" d="M275 0h-61l-44-196L126 0H64L0-248h53L97-49l45-199h58l43 199 44-199h52" id="Z"/><path fill="#3a414a" d="M114-157C55-157 80-60 75 0H25v-261h50l-1 109c12-26 28-41 61-42 86-1 58 113 63 194h-50c-7-57 23-157-34-157" id="aa"/><g id="o"><use transform="matrix(0.08641975308641975,0,0,0.08641975308641975,0,0)" xlink:href="#Z"/><use transform="matrix(0.08641975308641975,0,0,0.08641975308641975,29.037037037037035,0)" xlink:href="#A"/><use transform="matrix(0.08641975308641975,0,0,0.08641975308641975,37.67901234567901,0)" xlink:href="#z"/><use transform="matrix(0.08641975308641975,0,0,0.08641975308641975,47.96296296296296,0)" xlink:href="#aa"/></g><path fill="#3a414a" d="M135-194c52 0 70 43 70 98 0 56-19 99-73 100-30 1-46-15-58-35L72 0H24l1-261h50v104c11-23 29-37 60-37zM114-30c31 0 40-27 40-66 0-37-7-63-39-63s-41 28-41 65c0 36 8 64 40 64" id="ab"/><g id="p"><use transform="matrix(0.08641975308641975,0,0,0.08641975308641975,0,0)" xlink:href="#x"/><use transform="matrix(0.08641975308641975,0,0,0.08641975308641975,20.74074074074074,0)" xlink:href="#T"/><use transform="matrix(0.08641975308641975,0,0,0.08641975308641975,32.839506172839506,0)" xlink:href="#E"/><use transform="matrix(0.08641975308641975,0,0,0.08641975308641975,51.76543209876543,0)" xlink:href="#ab"/><use transform="matrix(0.08641975308641975,0,0,0.08641975308641975,70.69135802469135,0)" xlink:href="#y"/><use transform="matrix(0.08641975308641975,0,0,0.08641975308641975,87.9753086419753,0)" xlink:href="#ab"/><use transform="matrix(0.08641975308641975,0,0,0.08641975308641975,106.90123456790123,0)" xlink:href="#A"/><use transform="matrix(0.08641975308641975,0,0,0.08641975308641975,115.5432098765432,0)" xlink:href="#w"/><use transform="matrix(0.08641975308641975,0,0,0.08641975308641975,124.18518518518518,0)" xlink:href="#A"/><use transform="matrix(0.08641975308641975,0,0,0.08641975308641975,132.82716049382714,0)" xlink:href="#z"/><use transform="matrix(0.08641975308641975,0,0,0.08641975308641975,143.1111111111111,0)" xlink:href="#Y"/></g><path fill="#3a414a" d="M15-22v-40l146-57-146-57v-40l181 69v56" id="ac"/><use transform="matrix(0.08641975308641975,0,0,0.08641975308641975,0,0)" xlink:href="#ac" id="q"/><g id="r"><use transform="matrix(0.08641975308641975,0,0,0.08641975308641975,0,0)" xlink:href="#R"/><use transform="matrix(0.08641975308641975,0,0,0.08641975308641975,18.925925925925924,0)" xlink:href="#aa"/><use transform="matrix(0.08641975308641975,0,0,0.08641975308641975,37.85185185185185,0)" xlink:href="#T"/><use transform="matrix(0.08641975308641975,0,0,0.08641975308641975,49.95061728395061,0)" xlink:href="#B"/><use transform="matrix(0.08641975308641975,0,0,0.08641975308641975,67.23456790123456,0)" xlink:href="#I"/><use transform="matrix(0.08641975308641975,0,0,0.08641975308641975,84.5185185185185,0)" xlink:href="#aa"/><use transform="matrix(0.08641975308641975,0,0,0.08641975308641975,103.44444444444441,0)" xlink:href="#E"/><use transform="matrix(0.08641975308641975,0,0,0.08641975308641975,122.37037037037034,0)" xlink:href="#w"/><use transform="matrix(0.08641975308641975,0,0,0.08641975308641975,131.01234567901233,0)" xlink:href="#M"/></g><path fill="#3a414a" d="M23 0v-37h61v-169l-59 37v-38l62-41h46v211h57V0H23" id="ad"/><use transform="matrix(0.0864197530864197,0,0,0.0864197530864197,0,0)" xlink:href="#ad" id="s"/><path fill="#3a414a" d="M195-6C206 82 75 100 31 46c-4-6-6-13-8-21l49-6c3 16 16 24 34 25 40 0 42-37 40-79-11 22-30 35-61 35-53 0-70-43-70-97 0-56 18-96 73-97 30 0 46 14 59 34l2-30h47zm-90-29c32 0 41-27 41-63 0-35-9-62-40-62-32 0-39 29-40 63 0 36 9 62 39 62" id="ae"/><g id="t"><use transform="matrix(0.08641975308641976,0,0,0.08641975308641976,0,0)" xlink:href="#L"/><use transform="matrix(0.08641975308641976,0,0,0.08641975308641976,25.83950617283951,0)" xlink:href="#y"/><use transform="matrix(0.08641975308641976,0,0,0.08641975308641976,43.12345679012346,0)" xlink:href="#z"/><use transform="matrix(0.08641975308641976,0,0,0.08641975308641976,53.40740740740741,0)" xlink:href="#F"/><use transform="matrix(0.08641975308641976,0,0,0.08641975308641976,70.69135802469137,0)" xlink:href="#aa"/><use transform="matrix(0.08641975308641976,0,0,0.08641975308641976,89.61728395061729,0)" xlink:href="#A"/><use transform="matrix(0.08641975308641976,0,0,0.08641975308641976,98.25925925925927,0)" xlink:href="#C"/><use transform="matrix(0.08641975308641976,0,0,0.08641975308641976,117.18518518518519,0)" xlink:href="#ae"/></g><path fill="#3a414a" d="M195 0l-88-114-31 24V0H24v-248h52v113l112-113h60L142-143 257 0h-62" id="af"/><path fill="#3a414a" d="M231 0h-52l-39-155L100 0H48L-1-190h46L77-45c9-52 24-97 36-145h53l37 145 32-145h46" id="ag"/><path fill="#3a414a" d="M67-93c0 74 22 123 53 168H70C40 30 18-18 18-93s22-123 52-168h50c-32 44-53 94-53 168" id="ah"/><path fill="#3a414a" d="M102-93c0 74-22 123-52 168H0C30 29 54-18 53-93c0-74-22-123-53-168h50c30 45 52 94 52 168" id="ai"/><path fill="#3a414a" d="M110-251c83-7 118 89 53 130-17 10-36 21-38 46H78c2-56 65-53 71-103 2-21-15-35-38-34-25 1-41 14-44 38l-50-2c6-48 39-70 93-75zM77 0v-47h51V0H77" id="aj"/><g id="u"><use transform="matrix(0.08641975308641976,0,0,0.08641975308641976,0,0)" xlink:href="#af"/><use transform="matrix(0.08641975308641976,0,0,0.08641975308641976,22.38271604938272,0)" xlink:href="#B"/><use transform="matrix(0.08641975308641976,0,0,0.08641975308641976,39.66666666666667,0)" xlink:href="#Y"/><use transform="matrix(0.08641975308641976,0,0,0.08641975308641976,56.95061728395062,0)" xlink:href="#ag"/><use transform="matrix(0.08641975308641976,0,0,0.08641975308641976,81.14814814814815,0)" xlink:href="#E"/><use transform="matrix(0.08641975308641976,0,0,0.08641975308641976,100.07407407407409,0)" xlink:href="#T"/><use transform="matrix(0.08641975308641976,0,0,0.08641975308641976,112.17283950617283,0)" xlink:href="#M"/><use transform="matrix(0.08641975308641976,0,0,0.08641975308641976,131.09876543209876,0)" xlink:href="#ah"/><use transform="matrix(0.08641975308641976,0,0,0.08641975308641976,141.3827160493827,0)" xlink:href="#I"/><use transform="matrix(0.08641975308641976,0,0,0.08641975308641976,158.66666666666666,0)" xlink:href="#ai"/><use transform="matrix(0.08641975308641976,0,0,0.08641975308641976,168.9506172839506,0)" xlink:href="#aj"/></g></defs></g></svg>